<svg width="18" height="18" viewBox="0 0 18 18" fill="none" xmlns="http://www.w3.org/2000/svg">
<path d="M7.92991 5.13372C8.22475 5.42151 11.1054 8.44537 11.1054 8.44537C11.2627 8.59985 11.3417 8.80087 11.3417 9.0019C11.3417 9.20293 11.2627 9.40395 11.1054 9.55702C11.1054 9.55702 8.22475 12.5823 7.92991 12.8687C7.63507 13.1565 7.10464 13.1762 6.79076 12.8687C6.47617 12.5625 6.45148 12.1344 6.79076 11.7584L9.43373 9.0019L6.79076 6.24537C6.45148 5.86941 6.47617 5.44055 6.79076 5.13372C7.10464 4.82619 7.63507 4.84523 7.92991 5.13372Z" fill="#44566C"/>
<mask id="mask0" mask-type="alpha" maskUnits="userSpaceOnUse" x="6" y="4" width="6" height="10">
<path d="M7.92991 5.13372C8.22475 5.42151 11.1054 8.44537 11.1054 8.44537C11.2627 8.59985 11.3417 8.80087 11.3417 9.0019C11.3417 9.20293 11.2627 9.40395 11.1054 9.55702C11.1054 9.55702 8.22475 12.5823 7.92991 12.8687C7.63507 13.1565 7.10464 13.1762 6.79076 12.8687C6.47617 12.5625 6.45148 12.1344 6.79076 11.7584L9.43373 9.0019L6.79076 6.24537C6.45148 5.86941 6.47617 5.44055 6.79076 5.13372C7.10464 4.82619 7.63507 4.84523 7.92991 5.13372Z" fill="white"/>
</mask>
<g mask="url(#mask0)">
<rect width="18" height="18" fill="#B3C0CE"/>
</g>
</svg>
