<svg width="18" height="18" viewBox="0 0 18 18" fill="none" xmlns="http://www.w3.org/2000/svg">
<path d="M10.0697 12.8673C9.77482 12.5795 6.89415 9.5556 6.89415 9.5556C6.73685 9.40113 6.65785 9.2001 6.65785 8.99908C6.65785 8.79805 6.73685 8.59702 6.89415 8.44396C6.89415 8.44396 9.77482 5.41868 10.0697 5.13231C10.3645 4.84452 10.8949 4.82477 11.2088 5.13231C11.5234 5.43843 11.5481 5.86659 11.2088 6.24254L8.56584 8.99908L11.2088 11.7556C11.5481 12.1316 11.5234 12.5604 11.2088 12.8673C10.8949 13.1748 10.3645 13.1557 10.0697 12.8673Z" fill="#44566C"/>
<mask id="mask0" mask-type="alpha" maskUnits="userSpaceOnUse" x="6" y="4" width="6" height="10">
<path d="M10.0697 12.8673C9.77482 12.5795 6.89415 9.5556 6.89415 9.5556C6.73685 9.40113 6.65785 9.2001 6.65785 8.99908C6.65785 8.79805 6.73685 8.59702 6.89415 8.44396C6.89415 8.44396 9.77482 5.41868 10.0697 5.13231C10.3645 4.84452 10.8949 4.82477 11.2088 5.13231C11.5234 5.43843 11.5481 5.86659 11.2088 6.24254L8.56584 8.99908L11.2088 11.7556C11.5481 12.1316 11.5234 12.5604 11.2088 12.8673C10.8949 13.1748 10.3645 13.1557 10.0697 12.8673Z" fill="white"/>
</mask>
<g mask="url(#mask0)">
<rect x="18" y="18" width="18" height="18" transform="rotate(-180 18 18)" fill="#B3C0CE"/>
</g>
</svg>
